<?xml version="1.0" encoding="UTF-8"?>
<svg width="38px" height="44px" viewBox="0 0 38 44" version="1.1" xmlns="http://www.w3.org/2000/svg" xmlns:xlink="http://www.w3.org/1999/xlink">
    <!-- Generator: Sketch 64 (93537) - https://sketch.com -->
    <title>android</title>
    <desc>Created with Sketch.</desc>
    <defs>
        <path d="M11.875,19.9776165 L11.875,31.2862103 C11.875,32.7901165 10.6933594,33.9912884 9.18945312,33.9912884 C7.6953125,33.9912884 6.25,32.7803509 6.25,31.2862103 L6.25,19.9776165 C6.25,18.5030071 7.6953125,17.2920696 9.18945312,17.2920696 C10.6640625,17.2920696 11.875,18.5030071 11.875,19.9776165 Z M12.9296875,35.3096478 C12.9296875,36.9112103 14.21875,38.2002728 15.8203125,38.2002728 L17.7636719,38.2002728 L17.7929688,44.1670696 C17.7929688,47.7705853 23.1835938,47.7412884 23.1835938,44.1670696 L23.1835938,38.2002728 L26.8164063,38.2002728 L26.8164063,44.1670696 C26.8164063,47.751054 32.2363281,47.7608196 32.2363281,44.1670696 L32.2363281,38.2002728 L34.2089844,38.2002728 C35.7910156,38.2002728 37.0800781,36.9112103 37.0800781,35.3096478 L37.0800781,17.7901165 L12.9296875,17.7901165 L12.9296875,35.3096478 Z M37.1484375,16.8428509 L12.8222656,16.8428509 C12.8222656,12.6631634 15.3222656,9.03035089 19.0332031,7.13581964 L17.1679688,3.68855401 C16.8945312,3.21003839 17.5878906,2.90730401 17.8222656,3.31746026 L19.7167969,6.79402276 C23.125,5.28035089 27.0410156,5.35847589 30.2929687,6.79402276 L32.1777344,3.32722589 C32.421875,2.90730401 33.1054688,3.21980401 32.8320312,3.69831964 L30.9667969,7.13581964 C34.6484375,9.03035089 37.1484375,12.6631634 37.1484375,16.8428509 L37.1484375,16.8428509 Z M20.4785156,11.422929 C20.4785156,10.8662884 20.0292969,10.3975384 19.453125,10.3975384 C18.8964844,10.3975384 18.4570312,10.8662884 18.4570312,11.422929 C18.4570312,11.9795696 18.90625,12.4483196 19.453125,12.4483196 C20.0292969,12.4483196 20.4785156,11.9795696 20.4785156,11.422929 Z M31.5527344,11.422929 C31.5527344,10.8662884 31.1035156,10.3975384 30.5566406,10.3975384 C29.9804688,10.3975384 29.53125,10.8662884 29.53125,11.422929 C29.53125,11.9795696 29.9804688,12.4483196 30.5566406,12.4483196 C31.1035156,12.4483196 31.5527344,11.9795696 31.5527344,11.422929 Z M40.8105469,17.2920696 C39.3359375,17.2920696 38.125,18.4737103 38.125,19.9776165 L38.125,31.2862103 C38.125,32.7901165 39.3359375,33.9912884 40.8105469,33.9912884 C42.3144531,33.9912884 43.75,32.7803509 43.75,31.2862103 L43.75,19.9776165 C43.75,18.4737103 42.3046875,17.2920696 40.8105469,17.2920696 Z" id="path-1"></path>
    </defs>
    <g id="Page-1" stroke="none" stroke-width="1" fill="none" fill-rule="evenodd">
        <g id="Artboard-Copy" transform="translate(-640.000000, -734.000000)">
            <g id="Brands/android" transform="translate(634.000000, 731.000000)">
                <mask id="mask-2" fill="white">
                    <use xlink:href="#path-1"></use>
                </mask>
                <use id="Mask" fill="#000000" fill-rule="nonzero" xlink:href="#path-1"></use>
                <g id="Color/Purple-Copy" mask="url(#mask-2)" fill="#3D3A45" fill-rule="evenodd">
                    <rect id="Purple" x="0" y="0" width="50" height="50"></rect>
                </g>
            </g>
        </g>
    </g>
</svg>