<?xml version="1.0" encoding="UTF-8"?>
<svg width="38px" height="44px" viewBox="0 0 38 44" version="1.1" xmlns="http://www.w3.org/2000/svg" xmlns:xlink="http://www.w3.org/1999/xlink">
    <!-- Generator: Sketch 64 (93537) - https://sketch.com -->
    <title>apple</title>
    <desc>Created with Sketch.</desc>
    <defs>
        <path d="M27.265625,13.4277344 C26.6601562,13.6132812 25.7714844,13.7695312 24.5410156,13.8769531 C24.6484375,8.33984375 27.4609375,4.44335938 33.1347656,3.125 C34.0429687,7.1875 30.5859375,12.3144531 27.265625,13.4277344 L27.265625,13.4277344 Z M39.1113281,20.5273438 C39.7363281,19.609375 40.7324219,18.5839844 42.0996094,17.4316406 C39.921875,14.7363281 37.4023438,13.1054688 33.7890625,13.1054688 C30.3320313,13.1054688 27.421875,14.8828125 25.2929688,14.8828125 C23.4863281,14.8828125 20.2246094,13.3105469 17.0410156,13.3105469 C10.2441406,13.3105469 6.640625,19.9609375 6.640625,26.8847656 C6.640625,34.5800781 12.4707031,46.8652344 18.3789062,46.8652344 C20.703125,46.8652344 22.7929688,45.1074219 25.5566406,45.1074219 C28.4179688,45.1074219 30.7128906,46.7871094 33.3984375,46.7871094 C37.890625,46.7871094 42.0507812,39.21875 43.359375,35.0976562 C38.7890625,33.7011719 35.1171875,26.2890625 39.1113281,20.5273438 Z" id="path-1"></path>
    </defs>
    <g id="Page-1" stroke="none" stroke-width="1" fill="none" fill-rule="evenodd">
        <g id="Artboard-Copy" transform="translate(-231.000000, -734.000000)">
            <g id="Brands/apple" transform="translate(225.000000, 731.000000)">
                <mask id="mask-2" fill="white">
                    <use xlink:href="#path-1"></use>
                </mask>
                <use id="Mask" fill="#000000" fill-rule="nonzero" xlink:href="#path-1"></use>
                <g id="Color/Purple-Copy" mask="url(#mask-2)" fill="#3D3A45" fill-rule="evenodd">
                    <rect id="Purple" x="0" y="0" width="50" height="50"></rect>
                </g>
            </g>
        </g>
    </g>
</svg>