<?xml version="1.0" encoding="UTF-8"?>
<svg width="24px" height="18px" viewBox="0 0 24 18" version="1.1" xmlns="http://www.w3.org/2000/svg" xmlns:xlink="http://www.w3.org/1999/xlink">
    <!-- Generator: Sketch 64 (93537) - https://sketch.com -->
    <title>chart-bar</title>
    <desc>Created with Sketch.</desc>
    <defs>
        <path d="M23.4375,18 C23.746875,18 24,18.253125 24,18.5625 L24,20.4375 C24,20.746875 23.746875,21 23.4375,21 L0.5625,21 C0.253125,21 0,20.746875 0,20.4375 L0,3.5625 C0,3.253125 0.253125,3 0.5625,3 L2.4375,3 C2.746875,3 3,3.253125 3,3.5625 L3,18 L23.4375,18 Z M9,15.9375 L9,12.5625 C9,12.253125 8.746875,12 8.4375,12 L6.5625,12 C6.253125,12 6,12.253125 6,12.5625 L6,15.9375 C6,16.246875 6.253125,16.5 6.5625,16.5 L8.4375,16.5 C8.746875,16.5 9,16.246875 9,15.9375 Z M18,15.9375 L18,9.5625 C18,9.253125 17.746875,9 17.4375,9 L15.5625,9 C15.253125,9 15,9.253125 15,9.5625 L15,15.9375 C15,16.246875 15.253125,16.5 15.5625,16.5 L17.4375,16.5 C17.746875,16.5 18,16.246875 18,15.9375 Z M13.5,15.9375 L13.5,6.5625 C13.5,6.253125 13.246875,6 12.9375,6 L11.0625,6 C10.753125,6 10.5,6.253125 10.5,6.5625 L10.5,15.9375 C10.5,16.246875 10.753125,16.5 11.0625,16.5 L12.9375,16.5 C13.246875,16.5 13.5,16.246875 13.5,15.9375 Z M22.5,15.9375 L22.5,5.0625 C22.5,4.753125 22.246875,4.5 21.9375,4.5 L20.0625,4.5 C19.753125,4.5 19.5,4.753125 19.5,5.0625 L19.5,15.9375 C19.5,16.246875 19.753125,16.5 20.0625,16.5 L21.9375,16.5 C22.246875,16.5 22.5,16.246875 22.5,15.9375 Z" id="path-1"></path>
    </defs>
    <g id="Page-1" stroke="none" stroke-width="1" fill="none" fill-rule="evenodd">
        <g id="Artboard-Copy" transform="translate(-808.000000, -524.000000)">
            <g id="Solid/chart-bar" transform="translate(808.000000, 521.000000)">
                <mask id="mask-2" fill="white">
                    <use xlink:href="#path-1"></use>
                </mask>
                <use id="Mask" fill="#000000" fill-rule="nonzero" xlink:href="#path-1"></use>
                <g id="Color/Purple-Copy" mask="url(#mask-2)" fill="#3D3A45" fill-rule="evenodd">
                    <rect id="Purple" x="0" y="0" width="24" height="24"></rect>
                </g>
            </g>
        </g>
    </g>
</svg>