<?xml version="1.0" encoding="UTF-8"?>
<svg width="40px" height="32px" viewBox="0 0 40 32" version="1.1" xmlns="http://www.w3.org/2000/svg" xmlns:xlink="http://www.w3.org/1999/xlink">
    <!-- Generator: Sketch 64 (93537) - https://sketch.com -->
    <title>code</title>
    <desc>Created with Sketch.</desc>
    <defs>
        <path d="M17.4314507,35.9844257 L13.6192485,34.8770121 C13.2192797,34.7643937 12.9942973,34.3452033 13.1067885,33.9447825 L21.6373721,4.52637111 C21.7498633,4.12595037 22.1685806,3.9007137 22.5685493,4.01333203 L26.3807515,5.12074565 C26.7807203,5.23336398 27.0057027,5.65255445 26.8932115,6.05297519 L18.3626279,35.4713866 C18.2438872,35.8718074 17.8314194,36.1033006 17.4314507,35.9844257 L17.4314507,35.9844257 Z M10.3070073,28.9645495 L13.0255449,26.0614992 C13.3130224,25.754927 13.2942739,25.2669143 12.9755488,24.9853684 L7.31349113,19.9988789 L12.9755488,15.0123893 C13.2942739,14.7308435 13.3192719,14.2428307 13.0255449,13.9362586 L10.3070073,11.0332082 C10.0257792,10.7328926 9.55081634,10.7141229 9.24459027,11.0019253 L0.239043825,19.4483003 C-0.0796812749,19.7423593 -0.0796812749,20.2491418 0.239043825,20.5432008 L9.24459027,28.9958324 C9.55081634,29.2836348 10.0257792,29.2711217 10.3070073,28.9645495 L10.3070073,28.9645495 Z M30.7554097,29.002089 L39.7609562,20.5494574 C40.0796813,20.2553984 40.0796813,19.7486159 39.7609562,19.4545569 L30.7554097,10.9956687 C30.4554332,10.7141229 29.9804703,10.726636 29.6929927,11.0269516 L26.9744551,13.930002 C26.6869776,14.2365741 26.7057261,14.7245869 27.0244512,15.0061327 L32.6865089,19.9988789 L27.0244512,24.9853684 C26.7057261,25.2669143 26.6807281,25.754927 26.9744551,26.0614992 L29.6929927,28.9645495 C29.9742208,29.2711217 30.4491837,29.2836348 30.7554097,29.002089 Z" id="path-1"></path>
    </defs>
    <g id="Page-1" stroke="none" stroke-width="1" fill="none" fill-rule="evenodd">
        <g id="Artboard-Copy" transform="translate(-643.000000, -1063.000000)">
            <g id="Solid/code" transform="translate(643.000000, 1059.000000)">
                <mask id="mask-2" fill="white">
                    <use xlink:href="#path-1"></use>
                </mask>
                <use id="Mask" fill="#000000" fill-rule="nonzero" xlink:href="#path-1"></use>
                <g id="Color/Purple-Copy" mask="url(#mask-2)" fill="#3D3A45" fill-rule="evenodd">
                    <rect id="Purple" x="0" y="0" width="40" height="40"></rect>
                </g>
            </g>
        </g>
    </g>
</svg>