<?xml version="1.0" encoding="UTF-8"?>
<svg width="42px" height="40px" viewBox="0 0 42 40" version="1.1" xmlns="http://www.w3.org/2000/svg" xmlns:xlink="http://www.w3.org/1999/xlink">
    <!-- Generator: Sketch 64 (93537) - https://sketch.com -->
    <title>cordova-seeklogo.com</title>
    <desc>Created with Sketch.</desc>
    <g id="Page-1" stroke="none" stroke-width="1" fill="none" fill-rule="evenodd">
        <g id="Artboard-Copy" transform="translate(-638.000000, -898.000000)" fill="#444444" fill-rule="nonzero">
            <g id="cordova-seeklogo.com" transform="translate(638.000000, 898.000000)">
                <path d="M38.1818182,40 L31.3806818,40 L31.8579545,34.2857143 L28.5170455,34.2857143 L28.0397727,40 L13.9602273,40 L13.4829545,34.2857143 L10.1420455,34.2857143 L10.6193182,40 L3.81818182,40 L0,15.2380953 L9.54545455,0 L32.4545455,0 L42,15.2380953 L38.1818182,40 Z M30.5454545,7.61904762 L24.4090398,7.61904762 L24.8181818,10.4761905 L17.1818182,10.4761905 L17.5909602,7.61904762 L11.4545455,7.61904762 L7.63636363,15.2380953 L9.54545455,30.4761905 L32.4545455,30.4761905 L34.3636363,15.2380953 L30.5454545,7.61904762 Z M27.2045455,25.4190477 C26.6773977,25.4190477 26.25,23.8328572 26.25,21.8761904 C26.25,19.9195239 26.6773977,18.3333334 27.2045455,18.3333334 C27.7316932,18.3333334 28.159091,19.9195239 28.159091,21.8761904 C28.159091,23.8328572 27.7316932,25.4190477 27.2045455,25.4190477 Z M15.1534091,25.7142857 C14.6262614,25.7142857 14.1988636,24.1280952 14.1988636,22.1714286 C14.1988636,20.2147619 14.6262614,18.6285714 15.1534091,18.6285714 C15.6805568,18.6285714 16.1079545,20.2147619 16.1079545,22.1714286 C16.1079545,24.1280952 15.6805568,25.7142857 15.1534091,25.7142857 Z" id="Shape"></path>
            </g>
        </g>
    </g>
</svg>