<?xml version="1.0" encoding="UTF-8"?>
<svg width="44px" height="40px" viewBox="0 0 44 40" version="1.1" xmlns="http://www.w3.org/2000/svg" xmlns:xlink="http://www.w3.org/1999/xlink">
    <!-- Generator: Sketch 64 (93537) - https://sketch.com -->
    <title>react</title>
    <desc>Created with Sketch.</desc>
    <defs>
        <path d="M35.9390625,15.2270503 C35.475,15.0723628 35.0109375,14.9262691 34.546875,14.7887691 C34.6242187,14.4708003 34.6929687,14.1528316 34.7617188,13.8348628 C35.81875,8.71298784 35.1226562,4.59658159 32.7765625,3.23876909 C30.5164062,1.94111284 26.8296875,3.29033159 23.1,6.53876909 C22.7304687,6.85673784 22.3695312,7.19189409 22.0257812,7.52705034 C21.79375,7.30361284 21.553125,7.08017534 21.3125,6.86533159 C17.4023437,3.39345659 13.4835937,1.93251909 11.1375,3.29892534 C8.8859375,4.60517534 8.215625,8.48095659 9.1609375,13.3278316 C9.25546875,13.8090816 9.35859375,14.2817378 9.47890625,14.7629878 C8.92890625,14.9176753 8.3875,15.0895503 7.88046875,15.2700191 C3.29140625,16.8598628 0,19.3692378 0,21.9645503 C0,24.6458003 3.50625,27.3356441 8.27578125,28.9684566 C8.6625,29.0973628 9.04921875,29.2262691 9.44453125,29.3379878 C9.315625,29.8536128 9.20390625,30.3606441 9.10078125,30.8848628 C8.1984375,35.6543941 8.903125,39.4356441 11.1546875,40.7333003 C13.475,42.0739253 17.3765625,40.6989253 21.175,37.3731441 C21.4757812,37.1067378 21.7765625,36.8317378 22.0773438,36.5395503 C22.4554687,36.9090816 22.8507813,37.2614253 23.2460938,37.6051753 C26.9242188,40.7676753 30.559375,42.0481441 32.8023437,40.7504878 C35.1226562,39.4098628 35.8789062,35.3450191 34.8992187,30.3950191 C34.821875,30.0168941 34.7359375,29.6301753 34.6414062,29.2348628 C34.9164062,29.1575191 35.1828125,29.0715816 35.4492187,28.9856441 C40.4078125,27.3442378 44,24.6887691 44,21.9645503 C44,19.3606441 40.6140625,16.8340816 35.9390625,15.2270503 Z M24.3117187,7.93095659 C27.5085937,5.14658159 30.490625,4.05517534 31.8484375,4.83720659 C33.3007812,5.67080034 33.859375,9.03955034 32.9484375,13.4653316 C32.8882812,13.7575191 32.828125,14.0411128 32.7507812,14.3247066 C30.8429687,13.8950191 28.909375,13.5856441 26.9671875,13.4137691 C25.85,11.8153316 24.6296875,10.2856441 23.30625,8.85048784 C23.6414062,8.53251909 23.9679687,8.23173784 24.3117187,7.93095659 L24.3117187,7.93095659 Z M13.1398437,24.1817378 C13.5351562,24.9379878 13.9390625,25.6856441 14.36875,26.4247066 C14.8070312,27.1723628 15.2539062,27.9200191 15.7265625,28.6504878 C14.3859375,28.5043941 13.0539063,28.2895503 11.7390625,28.0059566 C12.1171875,26.7684566 12.5898438,25.4879878 13.1398438,24.1817378 L13.1398437,24.1817378 Z M13.1398438,19.8333003 C12.5984375,18.5528316 12.1429688,17.2981441 11.7648438,16.0864253 C13.0023438,15.8114253 14.3171875,15.5879878 15.6835938,15.4161128 C15.228125,16.1293941 14.78125,16.8598628 14.3601562,17.5989253 C13.9390625,18.3293941 13.5265625,19.0770503 13.1398438,19.8333003 Z M14.1195313,22.0075191 C14.6867188,20.8215816 15.3054688,19.6614253 15.9585938,18.5184566 C16.6117188,17.3754878 17.3164063,16.2668941 18.0554688,15.1754878 C19.3445313,15.0809566 20.659375,15.0293941 22,15.0293941 C23.340625,15.0293941 24.6640625,15.0809566 25.9445312,15.1754878 C26.675,16.2583003 27.3710938,17.3668941 28.0328125,18.5012691 C28.6945312,19.6356441 29.3132812,20.7958003 29.8976562,21.9731441 C29.321875,23.1590816 28.703125,24.3278316 28.0414062,25.4793941 C27.3882812,26.6223628 26.6921875,27.7309566 25.9617187,28.8309566 C24.68125,28.9254878 23.3492187,28.9684566 22,28.9684566 C20.6507813,28.9684566 19.3445312,28.9254878 18.08125,28.8481441 C17.3335938,27.7567378 16.6289062,26.6395503 15.9671875,25.4965816 C15.3054688,24.3536128 14.6953125,23.1934566 14.1195313,22.0075191 Z M29.6398437,26.4075191 C30.078125,25.6512691 30.490625,24.8864253 30.8945312,24.1129878 C31.4445312,25.3590816 31.9257812,26.6223628 32.346875,27.9200191 C31.0148437,28.2208003 29.665625,28.4528316 28.3078125,28.6075191 C28.771875,27.8856441 29.2101562,27.1465816 29.6398437,26.4075191 Z M30.8773437,19.8333003 C30.4734375,19.0770503 30.0609375,18.3208003 29.63125,17.5817378 C29.2101562,16.8512691 28.771875,16.1293941 28.3164062,15.4161128 C29.7,15.5879878 31.0234375,15.8200191 32.2609375,16.1036128 C31.865625,17.3754878 31.4015625,18.6129878 30.8773437,19.8333003 L30.8773437,19.8333003 Z M22.0171875,10.1653316 C22.9195312,11.1450191 23.7703125,12.1762691 24.5609375,13.2418941 C22.859375,13.1645503 21.1492188,13.1645503 19.4476563,13.2418941 C20.2898438,12.1333003 21.1578125,11.1020503 22.0171875,10.1653316 Z M12.0484375,4.89736284 C13.4921875,4.05517534 16.6976562,5.25830034 20.075,8.24892534 C20.2898437,8.43798784 20.5046875,8.64423784 20.728125,8.85048784 C19.3960937,10.2856441 18.1671875,11.8153316 17.0414062,13.4137691 C15.0992187,13.5856441 13.1742187,13.8864253 11.2664062,14.3075191 C11.1546875,13.8692378 11.0601562,13.4223628 10.965625,12.9754878 C10.1578125,8.81611284 10.690625,5.67939409 12.0484375,4.89736284 L12.0484375,4.89736284 Z M9.94296875,27.5504878 C9.58203125,27.4473628 9.2296875,27.3356441 8.87734375,27.2153316 C7.046875,26.6395503 4.9671875,25.7286128 3.46328125,24.5340816 C2.5953125,23.9325191 2.0109375,23.0043941 1.84765625,21.9645503 C1.84765625,20.3918941 4.56328125,18.3809566 8.48203125,17.0145503 C8.971875,16.8426753 9.4703125,16.6879878 9.96875,16.5418941 C10.553125,18.4067378 11.2578125,20.2372066 12.0742187,22.0075191 C11.2492187,23.8036128 10.5359375,25.6598628 9.94296875,27.5504878 L9.94296875,27.5504878 Z M19.9632813,35.9723628 C18.5453125,37.2700191 16.9039062,38.3012691 15.1164062,39.0059566 C14.1625,39.4614253 13.0625,39.5043941 12.0828125,39.1176753 C10.7164062,38.3270503 10.1492187,35.2934566 10.9226562,31.2114253 C11.0171875,30.7301753 11.1203125,30.2489253 11.240625,29.7762691 C13.165625,30.1887691 15.1078125,30.4723628 17.0757812,30.6184566 C18.2101562,32.2254878 19.45625,33.7637691 20.7882813,35.2075191 C20.5132813,35.4739253 20.2382812,35.7317378 19.9632813,35.9723628 Z M22.06875,33.8840816 C21.1921875,32.9387691 20.315625,31.8903316 19.4648437,30.7645503 C20.2898437,30.7989253 21.140625,30.8161128 22,30.8161128 C22.8851562,30.8161128 23.753125,30.7989253 24.6125,30.7559566 C23.821875,31.8473628 22.9710937,32.8872066 22.06875,33.8840816 L22.06875,33.8840816 Z M33.3007812,36.4622066 C33.2234375,37.5106441 32.7078125,38.4903316 31.8828125,39.1520503 C30.5164062,39.9426753 27.603125,38.9114253 24.4578125,36.2129878 C24.096875,35.9036128 23.7359375,35.5684566 23.3664062,35.2247066 C24.68125,33.7723628 25.8929687,32.2340816 26.9929687,30.6184566 C28.9609375,30.4551753 30.9203125,30.1543941 32.8539062,29.7161128 C32.9398437,30.0684566 33.0171875,30.4208003 33.0859375,30.7645503 C33.5070312,32.6208003 33.5757812,34.5543941 33.3007812,36.4622066 L33.3007812,36.4622066 Z M34.8648437,27.2239253 C34.6242187,27.3012691 34.3835937,27.3786128 34.134375,27.4473628 C33.5328125,25.5739253 32.79375,23.7434566 31.9429687,21.9645503 C32.7679687,20.2114253 33.4640625,18.4067378 34.0484375,16.5590816 C34.4953125,16.6879878 34.925,16.8254878 35.3375,16.9629878 C39.3421875,18.3379878 42.1523437,20.3833003 42.1523437,21.9473628 C42.1523437,23.6317378 39.153125,25.8059566 34.8648437,27.2239253 Z M22,18.0629878 C24.1742188,18.0629878 25.9359375,19.8247066 25.9359375,21.9989253 C25.9359375,24.1731441 24.1742188,25.9348628 22,25.9348628 C19.8257812,25.9348628 18.0640625,24.1731441 18.0640625,21.9989253 C18.0640625,19.8247066 19.8257812,18.0629878 22,18.0629878 L22,18.0629878 Z" id="path-1"></path>
    </defs>
    <g id="Page-1" stroke="none" stroke-width="1" fill="none" fill-rule="evenodd">
        <g id="Artboard-Copy" transform="translate(-228.000000, -900.000000)">
            <g id="Brands/react" transform="translate(228.000000, 898.000000)">
                <mask id="mask-2" fill="white">
                    <use xlink:href="#path-1"></use>
                </mask>
                <use id="Mask" fill="#000000" fill-rule="nonzero" xlink:href="#path-1"></use>
                <g id="Color/Purple-Copy" mask="url(#mask-2)" fill="#3D3A45" fill-rule="evenodd">
                    <rect id="Purple" x="0" y="0" width="44" height="44"></rect>
                </g>
            </g>
        </g>
    </g>
</svg>