<?xml version="1.0" encoding="UTF-8"?>
<svg width="44px" height="45px" viewBox="0 0 44 45" version="1.1" xmlns="http://www.w3.org/2000/svg" xmlns:xlink="http://www.w3.org/1999/xlink">
    <!-- Generator: Sketch 64 (93537) - https://sketch.com -->
    <title>unity-seeklogo.com</title>
    <desc>Created with Sketch.</desc>
    <g id="Page-1" stroke="none" stroke-width="1" fill="none" fill-rule="evenodd">
        <g id="Artboard-Copy" transform="translate(-228.000000, -1057.000000)" fill="#222C37" fill-rule="nonzero">
            <g id="unity-seeklogo.com" transform="translate(228.000000, 1057.000000)">
                <path d="M28.6878247,22.5012805 L36.5802261,8.90297639 L40.3940619,22.5012805 L36.5802261,36.0964747 L28.6878247,22.5012805 L28.6878247,22.5012805 Z M24.8409896,24.7095552 L32.7346742,38.3058471 L18.9872293,34.7916683 L9.05563683,24.7095552 L24.8409896,24.7095552 L24.8409896,24.7095552 Z M32.7328409,6.69287241 L24.8409896,20.2911765 L9.05563683,20.2911765 L18.9872293,10.2085146 L32.7328409,6.69287241 L32.7328409,6.69287241 Z M44,17.8736352 L39.1849936,0 L21.2130515,4.79008301 L18.5527348,9.45705725 L13.1543689,9.41846001 L0,22.502561 L13.1543689,35.5835521 L13.1549189,35.5835521 L18.5509015,35.5436745 L21.2150683,40.2106487 L39.1849936,45 L44,27.1296574 L41.2656175,22.5012805 L44,17.8736352 L44,17.8736352 Z" id="Shape"></path>
            </g>
        </g>
    </g>
</svg>