<?xml version="1.0" encoding="UTF-8"?>
<svg width="137px" height="27px" viewBox="0 0 137 27" version="1.1" xmlns="http://www.w3.org/2000/svg" xmlns:xlink="http://www.w3.org/1999/xlink">
    <!-- Generator: Sketch 64 (93537) - https://sketch.com -->
    <title>logo-black</title>
    <desc>Created with Sketch.</desc>
    <g id="Symbols" stroke="none" stroke-width="1" fill="none" fill-rule="evenodd">
        <g id="header" transform="translate(-21.000000, -21.000000)" fill="#000000">
            <g id="logo-white" transform="translate(21.000000, 21.000000)">
                <g id="Group">
                    <g id="symbol-white" transform="translate(0.000000, 0.000000)">
                        <path d="M11.66928,0 L0,6.58257662 L0,19.7477298 L11.66928,26.3303065 L23.33856,19.7477298 L23.33856,6.58257662 L11.66928,0 Z M20.5169236,8.17431672 L12.1837078,3.47297888 L12.1837078,1.45101158 L22.30919,7.16308177 L22.30919,19.1672247 L12.1837078,13.4551545 L12.1837078,11.4110727 L20.5169236,16.111908 L20.5169236,8.17431672 Z M1.02834115,7.16308177 L11.1548522,1.45101158 L11.1548522,3.47297888 L2.821122,8.17431672 L2.821122,16.111908 L11.1548522,11.4110727 L11.1548522,13.4551545 L1.02834115,19.1672247 L1.02834115,7.16308177 Z M12.1837078,6.86503886 L12.1837078,4.63449179 L19.488068,8.75482187 L19.488068,10.9853689 L12.1837078,6.86503886 Z M3.84997758,8.75482187 L11.1548522,4.63449179 L11.1548522,6.86503886 L3.84997758,10.9853689 L3.84997758,8.75482187 Z M12.1837078,10.2500624 L12.1837078,8.02604917 L19.488068,12.1468819 L19.488068,14.3708951 L12.1837078,10.2500624 Z M3.84997758,12.1468819 L11.1548522,8.02604917 L11.1548522,10.2500624 L3.84997758,14.3708951 L3.84997758,12.1468819 Z M12.1837078,22.2250544 L12.1837078,14.6161648 L21.2803344,19.7477298 L14.5367005,23.5519234 L12.1837078,22.2250544 Z M2.05771116,19.7477298 L11.1548522,14.6161648 L11.1548522,22.2250544 L8.80237392,23.5519234 L2.05771116,19.7477298 Z M9.8312295,24.1329311 L11.66928,23.0955609 L13.5078449,24.1329311 L11.66928,25.1697988 L9.8312295,24.1329311 Z" id="Fill-1"></path>
                    </g>
                    <path d="M33.775,19 L31.405,8.02 L32.68,8.02 L33.895,14.125 C34.12,15.295 34.345,16.48 34.57,17.68 L34.63,17.68 C34.885,16.48 35.155,15.295 35.425,14.125 L36.985,8.02 L38.14,8.02 L39.715,14.125 C39.985,15.28 40.255,16.48 40.525,17.68 L40.6,17.68 C40.81,16.48 41.02,15.295 41.245,14.125 L42.46,8.02 L43.645,8.02 L41.335,19 L39.865,19 L38.11,12.16 C37.93,11.305 37.75,10.525 37.57,9.67 L37.51,9.67 C37.33,10.525 37.12,11.305 36.94,12.16 L35.23,19 L33.775,19 Z M45.61,19 L45.61,8.02 L46.855,8.02 L46.855,19 L45.61,19 Z M52.915,19.195 C51.355,19.195 50.05,18.565 49.105,17.56 L49.855,16.705 C50.65,17.56 51.76,18.1 52.93,18.1 C54.43,18.1 55.345,17.335 55.345,16.21 C55.345,15.025 54.52,14.65 53.47,14.185 L51.88,13.48 C50.86,13.045 49.645,12.295 49.645,10.69 C49.645,9.025 51.085,7.825 53.035,7.825 C54.355,7.825 55.48,8.38 56.23,9.175 L55.57,9.97 C54.895,9.325 54.085,8.92 53.035,8.92 C51.76,8.92 50.905,9.565 50.905,10.6 C50.905,11.725 51.895,12.145 52.735,12.505 L54.325,13.18 C55.585,13.735 56.605,14.485 56.605,16.12 C56.605,17.845 55.18,19.195 52.915,19.195 Z M58.795,19 L58.795,8.02 L65.05,8.02 L65.05,9.07 L60.04,9.07 L60.04,12.685 L64.255,12.685 L64.255,13.735 L60.04,13.735 L60.04,17.95 L65.215,17.95 L65.215,19 L58.795,19 Z M69.475,19 L69.475,10.06 L66.46,10.06 L66.46,7.825 L75.19,7.825 L75.19,10.06 L72.16,10.06 L72.16,19 L69.475,19 Z M76.915,19 L76.915,7.825 L81.01,7.825 C83.395,7.825 85.375,8.65 85.375,11.35 C85.375,12.985 84.61,14.035 83.455,14.575 L85.945,19 L82.945,19 L80.89,15.07 L79.6,15.07 L79.6,19 L76.915,19 Z M79.6,12.955 L80.8,12.955 C82.075,12.955 82.765,12.4 82.765,11.35 C82.765,10.3 82.075,9.955 80.8,9.955 L79.6,9.955 L79.6,12.955 Z M90.085,13.42 L89.845,14.365 L92.125,14.365 L91.885,13.42 C91.585,12.31 91.3,10.975 91,9.835 L90.94,9.835 C90.67,11.005 90.37,12.31 90.085,13.42 Z M85.96,19 L89.425,7.825 L92.635,7.825 L96.1,19 L93.28,19 L92.635,16.435 L89.335,16.435 L88.69,19 L85.96,19 Z M101.815,19.21 C98.98,19.21 96.58,17.26 96.58,13.48 C96.58,9.76 99.07,7.63 101.905,7.63 C103.36,7.63 104.53,8.305 105.295,9.085 L103.9,10.795 C103.33,10.285 102.745,9.925 101.95,9.925 C100.51,9.925 99.325,11.215 99.325,13.39 C99.325,15.61 100.345,16.9 101.92,16.9 C102.82,16.9 103.525,16.45 104.05,15.88 L105.46,17.56 C104.515,18.655 103.27,19.21 101.815,19.21 Z M107.095,19 L107.095,7.825 L109.78,7.825 L109.78,12.25 L109.825,12.25 L112.99,7.825 L115.93,7.825 L112.555,12.31 L116.56,19 L113.635,19 L110.995,14.425 L109.78,16.075 L109.78,19 L107.095,19 Z M117.715,19 L117.715,7.825 L124.795,7.825 L124.795,10.06 L120.4,10.06 L120.4,12.13 L124.135,12.13 L124.135,14.38 L120.4,14.38 L120.4,16.75 L124.96,16.75 L124.96,19 L117.715,19 Z M127.165,19 L127.165,7.825 L131.26,7.825 C133.645,7.825 135.625,8.65 135.625,11.35 C135.625,12.985 134.86,14.035 133.705,14.575 L136.195,19 L133.195,19 L131.14,15.07 L129.85,15.07 L129.85,19 L127.165,19 Z M129.85,12.955 L131.05,12.955 C132.325,12.955 133.015,12.4 133.015,11.35 C133.015,10.3 132.325,9.955 131.05,9.955 L129.85,9.955 L129.85,12.955 Z" id="WISETRACKER-Copy"></path>
                </g>
            </g>
        </g>
    </g>
</svg>